<svg xmlns="http://www.w3.org/2000/svg" xmlns:xlink="http://www.w3.org/1999/xlink" width="333.198" height="78.616" viewBox="0 0 333.198 78.616">
  <defs>
    <linearGradient id="linear-gradient" y1="0.5" x2="1" y2="0.5" gradientUnits="objectBoundingBox">
      <stop offset="0" stop-color="#fff"/>
      <stop offset="1" stop-color="#6e007d"/>
    </linearGradient>
  </defs>
  <g id="Group_3047" data-name="Group 3047" transform="translate(-388.533 -178.33)">
    <path id="Path_128" data-name="Path 128" d="M445.384,231.815l-2.98,1.721h0l-17.486,10.1v5.288a1.354,1.354,0,1,1-2.708,0v-5.207l-18.771-10.838-1.834-1.059h0l-4.515,2.6a1.348,1.348,0,0,1-.675.181h0a1.356,1.356,0,0,1-.2-.016c-.02,0-.039-.008-.059-.012a1.308,1.308,0,0,1-.146-.036l-.058-.019c-.031-.011-.061-.023-.091-.036s-.054-.025-.08-.039-.049-.027-.073-.041-.051-.032-.076-.049-.046-.034-.069-.052-.058-.048-.086-.074l-.016-.015a1.352,1.352,0,0,1,.273-2.138l3.834-2.21.7-.4V205.82l-1.056-.608-3.479-2a1.355,1.355,0,0,1-.5-1.85v0a1.334,1.334,0,0,1,.092-.137l.026-.032a1.271,1.271,0,0,1,.1-.107l.013-.013a1.306,1.306,0,0,1,.152-.128l.037-.025a1.3,1.3,0,0,1,.162-.1l.024-.01a1.329,1.329,0,0,1,.131-.052l.032-.01c.033-.01.066-.02.1-.027l.033-.007q.051-.011.1-.017l.034,0c.034,0,.068-.006.1-.006h.037c.033,0,.066,0,.1,0l.041,0c.031,0,.062.008.093.014l.045.008c.03.006.059.014.088.022l.049.014c.028.009.056.02.084.031l.049.019c.032.014.063.031.094.048l.034.017,4.515,2.6h0l2.3-1.325,18.31-10.571v-5.207a1.354,1.354,0,0,1,1.216-1.347c.045,0,.09-.007.136-.007h0a1.355,1.355,0,0,1,1.354,1.354v5.288l.034-.011,25.1,14.447,6.312-3.612a3.268,3.268,0,0,0,1.192-4.444l-.024-.042h0c-.009-.014-.018-.029-.025-.042l-.04-.07c-.018-.031-.04-.058-.058-.088a6.291,6.291,0,0,0-2.086-2.136l-3.751-2.165-7.856-4.535-17.1-9.872a6.4,6.4,0,0,0-3.128-.745,6.9,6.9,0,0,0-2.5.448,4.741,4.741,0,0,0-.624.3l-28.7,16.572a7.013,7.013,0,0,0-3.111,5.041q-.016.191-.016.377v33.145q0,.186.016.377a7.014,7.014,0,0,0,3.111,5.041l28.7,16.572a4.751,4.751,0,0,0,.638.3,6.909,6.909,0,0,0,2.49.442,6.4,6.4,0,0,0,3.128-.745l14.234-8.218,9.659-5.576h0l4.811-2.778a6.4,6.4,0,0,0,2.208-2.335Z" transform="translate(0 0)" fill="#1aeccf"/>
    <g id="Group_23" data-name="Group 23" transform="translate(476.449 197.327)">
      <g id="Group_22" data-name="Group 22" transform="translate(0 0)">
        <path id="Path_129" data-name="Path 129" d="M893.465,324.147c-12.081,0-18.093-8-18.093-20.283,0-12.691,6.359-20.34,18.786-20.34,4.8,0,8.671,1.159,11.618,3.593a15.028,15.028,0,0,1,4.74,10.2h-4.855a3.912,3.912,0,0,1-3.757-2.376c-1.329-2.84-3.931-4.288-7.746-4.288-7.456,0-10.751,5.273-10.751,13.213,0,7.707,3.179,13.155,10.52,13.155,5.029,0,7.919-2.782,8.786-7.128h7.8C909.765,318.989,903.407,324.147,893.465,324.147Z" transform="translate(-875.372 -283.524)" fill="#fff"/>
        <path id="Path_130" data-name="Path 130" d="M1116.533,299.924c-4.567,0-6.532,3.825-6.532,8.519v15.7h-7.688V283.524h3.873c2.543,0,3.815,1.333,3.815,3.883V297.78c3.931-4.52,8.728-5.795,14.451-3.767q6.416,2.347,6.069,12.343v17.791h-7.63v-15.7C1122.891,303.285,1120.926,299.924,1116.533,299.924Z" transform="translate(-1061.331 -283.524)" fill="#fff"/>
        <path id="Path_131" data-name="Path 131" d="M1304.816,367.508c-9.249-.283-13.873-5.546-13.873-15.732s4.682-15.279,13.989-15.336c9.711,0,14.277,5.829,13.7,17.542h-19.769c.289,4.584,2.312,6.9,6.07,6.9a7.175,7.175,0,0,0,4.971-2.15,3.4,3.4,0,0,1,2.6-1.075h5.665C1316.492,364,1312.331,367.508,1304.816,367.508Zm-5.838-18.9h11.5c-.463-3.961-2.37-6-5.665-6S1299.556,344.646,1298.978,348.608Z" transform="translate(-1215.897 -326.885)" fill="#fff"/>
        <path id="Path_132" data-name="Path 132" d="M1484.8,347.911v19.482H1477V349.467c0-8.7,4.393-13.026,13.121-13.026,3.93,0,6.936.865,9.133,2.594,2.2-1.671,5.2-2.478,9.133-2.478,8.729,0,13.064,4.323,13.006,13.026v17.926H1517.4c-2.543-.173-3.815-1.383-3.815-3.8V348.026c-.173-3.17-1.907-4.726-5.318-4.726s-5.145,1.556-5.2,4.726v19.366h-7.746V347.911c-.174-3.17-1.908-4.726-5.318-4.726S1484.86,344.741,1484.8,347.911Z" transform="translate(-1368.353 -326.885)" fill="#fff"/>
        <path id="Path_133" data-name="Path 133" d="M1759.143,283.524c2.543,0,3.756,1.317,3.7,3.891v2.335h-7.686v-6.226Zm0,9.492c2.485,0,3.7,1.236,3.7,3.767v27.365h-7.688V293.016Z" transform="translate(-1596.28 -283.524)" fill="#fff"/>
        <path id="Path_134" data-name="Path 134" d="M1837.742,287.407v36.74h-7.687V283.524h3.988A3.843,3.843,0,0,1,1837.742,287.407Z" transform="translate(-1657.653 -283.524)" fill="#fff"/>
        <path id="Path_135" data-name="Path 135" d="M1918.824,367.508c-9.248-.283-13.873-5.546-13.873-15.732s4.682-15.279,13.989-15.336c9.711,0,14.278,5.829,13.7,17.542h-19.769c.289,4.584,2.312,6.9,6.069,6.9a7.174,7.174,0,0,0,4.971-2.15,3.4,3.4,0,0,1,2.6-1.075h5.665C1930.5,364,1926.339,367.508,1918.824,367.508Zm-5.838-18.9h11.5c-.462-3.961-2.37-6-5.665-6S1913.564,344.646,1912.986,348.608Z" transform="translate(-1719.024 -326.885)" fill="#fff"/>
        <path id="Path_136" data-name="Path 136" d="M2099.484,344.717H2091.8c.925-5.555,4.914-8.276,11.966-8.276,8.439,0,12.717,2.721,12.89,8.276v10.2c0,8.276-5.087,11.96-13.352,12.527-7.341.567-12.427-2.777-12.427-9.409.173-7.2,5.491-9.126,13.237-9.863,3.294-.4,4.971-1.36,4.971-3-.173-1.7-1.792-2.551-4.971-2.551C2101.392,342.619,2099.889,343.3,2099.484,344.717Zm9.711,9.863V351.8a33.807,33.807,0,0,1-6.127,1.814c-3.064.567-4.625,1.984-4.625,4.194.173,2.381,1.446,3.514,3.873,3.514C2106.594,361.325,2109.2,358.831,2109.2,354.58Z" transform="translate(-1871.37 -326.885)" fill="#fff"/>
      </g>
    </g>
    <path id="Path_137" data-name="Path 137" d="M445.384,425.254l-2.98,1.721h0l-17.486,10.1v5.287a1.354,1.354,0,1,1-2.708,0v-5.207l-18.771-10.837-1.834-1.059h0l-4.515,2.6a1.348,1.348,0,0,1-.675.181h0a1.356,1.356,0,0,1-.2-.016l-.059-.012a1.308,1.308,0,0,1-.146-.036l-.058-.019c-.031-.011-.061-.023-.091-.036s-.054-.025-.08-.039-.049-.027-.073-.041-.051-.032-.076-.05-.046-.034-.069-.052-.058-.048-.086-.074l-.016-.015a1.352,1.352,0,0,1,.273-2.138l3.834-2.209.7-.4V415.1a111.008,111.008,0,0,1-11.738-.7v13.25q0,.186.016.377a7.014,7.014,0,0,0,3.111,5.041l28.7,16.572a4.751,4.751,0,0,0,.638.3,6.909,6.909,0,0,0,2.49.442,6.4,6.4,0,0,0,3.128-.745l14.234-8.218,9.659-5.576h0l4.811-2.778a6.4,6.4,0,0,0,2.208-2.335Z" transform="translate(0 -193.439)" fill="#13a4d1"/>
    <path id="Path_138" data-name="Path 138" d="M623.272,474.5l-2.98,1.721h0l-14.667,8.468v13.554l13.119-7.574L628.4,485.1h0l4.811-2.778a6.4,6.4,0,0,0,2.209-2.335Z" transform="translate(-177.888 -242.689)" opacity="0.4" fill="url(#linear-gradient)" style="mix-blend-mode: multiply;isolation: isolate"/>
    <g id="Group_28" data-name="Group 28" transform="translate(408.163 202.351)">
      <g id="Group_24" data-name="Group 24" transform="translate(0 0)">
        <path id="Path_139" data-name="Path 139" d="M505.111,331.2a8.758,8.758,0,1,1,11.978,3.154,8.768,8.768,0,0,1-11.978-3.154m-5.772,3.366a15.44,15.44,0,1,0,5.561-21.116,15.44,15.44,0,0,0-5.561,21.116Z" transform="translate(-497.235 -311.35)" fill="#f7e13e"/>
      </g>
      <g id="Group_27" data-name="Group 27" transform="translate(0.484 11.742)">
        <g id="Group_25" data-name="Group 25">
          <path id="Path_140" data-name="Path 140" d="M523.565,379.027a8.758,8.758,0,0,1-16.854,4.228q-3.361.459-6.8.639a15.44,15.44,0,0,0,29.949-7.521Q526.752,377.841,523.565,379.027Z" transform="translate(-499.912 -376.373)" fill="#f4a640"/>
        </g>
        <g id="Group_26" data-name="Group 26" transform="translate(24.072 7.46)">
          <path id="Path_141" data-name="Path 141" d="M656.859,428.935a3.269,3.269,0,0,1,1.192,4.445l-.088.153a3.251,3.251,0,0,1-4.435,1.189L634.834,423.9a3.269,3.269,0,0,1-1.191-4.445l.088-.153a3.251,3.251,0,0,1,4.435-1.189Z" transform="translate(-633.211 -417.683)" fill="#f4a640"/>
        </g>
      </g>
    </g>
  </g>
</svg>
