<svg id="facebook" xmlns="http://www.w3.org/2000/svg" width="22.939" height="22.939" viewBox="0 0 22.939 22.939">
  <path id="Path_73" data-name="Path 73" d="M291.143,508.668q-.143.023-.288.043Q291,508.691,291.143,508.668Zm0,0" transform="translate(-277.825 -485.879)" fill="#fff"/>
  <path id="Path_74" data-name="Path 74" d="M299.477,507.793l-.137.024Zm0,0" transform="translate(-285.929 -485.043)" fill="#fff"/>
  <path id="Path_75" data-name="Path 75" d="M277.947,510.34q-.168.019-.337.033Q277.779,510.359,277.947,510.34Zm0,0" transform="translate(-265.172 -487.475)" fill="#fff"/>
  <path id="Path_76" data-name="Path 76" d="M286.607,509.738l-.162.02Zm0,0" transform="translate(-273.612 -486.901)" fill="#fff"/>
  <path id="Path_77" data-name="Path 77" d="M306.785,506.41l-.121.025Zm0,0" transform="translate(-292.925 -483.722)" fill="#fff"/>
  <path id="Path_78" data-name="Path 78" d="M324.582,502.113l-.1.027Zm0,0" transform="translate(-309.947 -479.617)" fill="#fff"/>
  <path id="Path_79" data-name="Path 79" d="M319.165,503.543l-.106.028Zm0,0" transform="translate(-304.764 -480.983)" fill="#fff"/>
  <path id="Path_80" data-name="Path 80" d="M312.179,505.254l-.113.025Zm0,0" transform="translate(-298.085 -482.617)" fill="#fff"/>
  <path id="Path_81" data-name="Path 81" d="M273.662,511.09l-.181.014Zm0,0" transform="translate(-261.228 -488.192)" fill="#fff"/>
  <path id="Path_82" data-name="Path 82" d="M22.939,11.469A11.469,11.469,0,1,0,11.469,22.939l.2,0V14.008H9.207V11.136h2.464V9.023a3.449,3.449,0,0,1,3.682-3.785,20.284,20.284,0,0,1,2.209.113V7.912H16.055c-1.189,0-1.42.565-1.42,1.395v1.829h2.844l-.371,2.872H14.635V22.5A11.476,11.476,0,0,0,22.939,11.469Zm0,0" fill="#fff"/>
  <path id="Path_83" data-name="Path 83" d="M265.25,511.43q-.179.012-.359.018Q265.071,511.442,265.25,511.43Zm0,0" transform="translate(-253.023 -488.517)" fill="#fff"/>
  <path id="Path_84" data-name="Path 84" d="M260.694,511.836l-.19,0Zm0,0" transform="translate(-248.833 -488.905)" fill="#fff"/>
</svg>
