<svg id="name" xmlns="http://www.w3.org/2000/svg" width="24.919" height="20.766" viewBox="0 0 24.919 20.766">
  <path id="Path_4547" data-name="Path 4547" d="M22.064,61.357H2.855A2.858,2.858,0,0,1,0,58.5V45.523a2.858,2.858,0,0,1,2.855-2.855h6.23a.779.779,0,0,1,0,1.557H2.855a1.3,1.3,0,0,0-1.3,1.3V58.5a1.3,1.3,0,0,0,1.3,1.3H22.064a1.3,1.3,0,0,0,1.3-1.3V45.523a1.3,1.3,0,0,0-1.3-1.3h-6.23a.779.779,0,0,1,0-1.557h6.23a2.858,2.858,0,0,1,2.855,2.855V58.5A2.858,2.858,0,0,1,22.064,61.357Zm0,0" transform="translate(0 -40.591)" fill="#f4a640"/>
  <path id="Path_4548" data-name="Path 4548" d="M177.157,5.711h-4.672a1.819,1.819,0,0,1-1.817-1.817V1.817A1.819,1.819,0,0,1,172.485,0h4.672a1.819,1.819,0,0,1,1.817,1.817V3.894A1.819,1.819,0,0,1,177.157,5.711Zm-4.672-4.153a.26.26,0,0,0-.26.26V3.894a.26.26,0,0,0,.26.26h4.672a.259.259,0,0,0,.259-.26V1.817a.26.26,0,0,0-.259-.26Zm0,0" transform="translate(-162.362 0)" fill="#f4a640"/>
  <path id="Path_4549" data-name="Path 4549" d="M109.264,154.524a2.6,2.6,0,1,1,2.6-2.6A2.6,2.6,0,0,1,109.264,154.524Zm0-3.634a1.038,1.038,0,1,0,1.038,1.038A1.04,1.04,0,0,0,109.264,150.889Zm0,0" transform="translate(-101.476 -142.064)" fill="#13a4d1"/>
  <path id="Path_4550" data-name="Path 4550" d="M72.566,281.485a.779.779,0,0,1-.779-.779v-.519a1.3,1.3,0,0,0-1.3-1.3H66.855a1.3,1.3,0,0,0-1.3,1.3v.519a.779.779,0,0,1-1.557,0v-.519a2.858,2.858,0,0,1,2.855-2.855h3.634a2.858,2.858,0,0,1,2.855,2.855v.519A.779.779,0,0,1,72.566,281.485Zm0,0" transform="translate(-60.885 -263.834)" fill="#13a4d1"/>
  <path id="Path_4551" data-name="Path 4551" d="M305.157,161.557h-5.711a.779.779,0,1,1,0-1.557h5.711a.779.779,0,0,1,0,1.557Zm0,0" transform="translate(-284.132 -152.213)" fill="#13a4d1"/>
  <path id="Path_4552" data-name="Path 4552" d="M305.157,246.889h-5.711a.779.779,0,1,1,0-1.557h5.711a.779.779,0,0,1,0,1.557Zm0,0" transform="translate(-284.132 -233.392)" fill="#13a4d1"/>
  <path id="Path_4553" data-name="Path 4553" d="M305.157,332.225h-5.711a.779.779,0,1,1,0-1.557h5.711a.779.779,0,1,1,0,1.557Zm0,0" transform="translate(-284.132 -314.574)" fill="#13a4d1"/>
</svg>
