<svg xmlns="http://www.w3.org/2000/svg" width="22.939" height="22.939" viewBox="0 0 22.939 22.939">
  <path id="linkedin" d="M11.469,0A11.469,11.469,0,1,0,22.939,11.469,11.471,11.471,0,0,0,11.469,0ZM8.136,17.338H5.343v-8.4H8.136ZM6.74,7.787H6.722a1.456,1.456,0,1,1,.037-2.9,1.456,1.456,0,1,1-.019,2.9Zm11.469,9.551H15.416v-4.5c0-1.13-.4-1.9-1.415-1.9a1.529,1.529,0,0,0-1.433,1.022,1.913,1.913,0,0,0-.092.682v4.693H9.682s.037-7.615,0-8.4h2.793v1.19a2.773,2.773,0,0,1,2.517-1.387c1.838,0,3.216,1.2,3.216,3.782Zm0,0" fill="#fff"/>
</svg>
