<?xml version="1.0" encoding="utf-8"?>
<!-- Generator: Adobe Illustrator 24.1.2, SVG Export Plug-In . SVG Version: 6.00 Build 0)  -->
<svg version="1.1" id="Layer_1" xmlns="http://www.w3.org/2000/svg" xmlns:xlink="http://www.w3.org/1999/xlink" x="0px" y="0px"
	 viewBox="0 0 120.5 120.5" style="enable-background:new 0 0 120.5 120.5;" xml:space="preserve">
<style type="text/css">
	.st0{fill:none;}
	.st1{fill:#FFFFFF;}
	.st2{clip-path:url(#SVGID_2_);fill:#1AECCF;}
	.st3{clip-path:url(#SVGID_2_);fill:#1AEBCF;}
	.st4{clip-path:url(#SVGID_2_);fill:#1AEACF;}
	.st5{clip-path:url(#SVGID_2_);fill:#1AE9CF;}
	.st6{clip-path:url(#SVGID_2_);fill:#1AE8CF;}
	.st7{clip-path:url(#SVGID_2_);fill:#1AE7CF;}
	.st8{clip-path:url(#SVGID_2_);fill:#19E6CF;}
	.st9{clip-path:url(#SVGID_2_);fill:#19E5CF;}
	.st10{clip-path:url(#SVGID_2_);fill:#19E4CF;}
	.st11{clip-path:url(#SVGID_2_);fill:#19E3CF;}
	.st12{clip-path:url(#SVGID_2_);fill:#19E2CF;}
	.st13{clip-path:url(#SVGID_2_);fill:#19E1CF;}
	.st14{clip-path:url(#SVGID_2_);fill:#19E0CF;}
	.st15{clip-path:url(#SVGID_2_);fill:#19DFCF;}
	.st16{clip-path:url(#SVGID_2_);fill:#19DECF;}
	.st17{clip-path:url(#SVGID_2_);fill:#19DDCF;}
	.st18{clip-path:url(#SVGID_2_);fill:#18DCCF;}
	.st19{clip-path:url(#SVGID_2_);fill:#18DBCF;}
	.st20{clip-path:url(#SVGID_2_);fill:#18DAD0;}
	.st21{clip-path:url(#SVGID_2_);fill:#18D9D0;}
	.st22{clip-path:url(#SVGID_2_);fill:#18D8D0;}
	.st23{clip-path:url(#SVGID_2_);fill:#18D7D0;}
	.st24{clip-path:url(#SVGID_2_);fill:#18D6D0;}
	.st25{clip-path:url(#SVGID_2_);fill:#18D5D0;}
	.st26{clip-path:url(#SVGID_2_);fill:#18D4D0;}
	.st27{clip-path:url(#SVGID_2_);fill:#18D3D0;}
	.st28{clip-path:url(#SVGID_2_);fill:#17D2D0;}
	.st29{clip-path:url(#SVGID_2_);fill:#17D1D0;}
	.st30{clip-path:url(#SVGID_2_);fill:#17D0D0;}
	.st31{clip-path:url(#SVGID_2_);fill:#17CFD0;}
	.st32{clip-path:url(#SVGID_2_);fill:#17CED0;}
	.st33{clip-path:url(#SVGID_2_);fill:#17CDD0;}
	.st34{clip-path:url(#SVGID_2_);fill:#17CCD0;}
	.st35{clip-path:url(#SVGID_2_);fill:#17CBD0;}
	.st36{clip-path:url(#SVGID_2_);fill:#17CAD0;}
	.st37{clip-path:url(#SVGID_2_);fill:#17C9D0;}
	.st38{clip-path:url(#SVGID_2_);fill:#16C7D0;}
	.st39{clip-path:url(#SVGID_2_);fill:#16C6D0;}
	.st40{clip-path:url(#SVGID_2_);fill:#16C5D0;}
	.st41{clip-path:url(#SVGID_2_);fill:#16C4D0;}
	.st42{clip-path:url(#SVGID_2_);fill:#16C3D0;}
	.st43{clip-path:url(#SVGID_2_);fill:#16C2D0;}
	.st44{clip-path:url(#SVGID_2_);fill:#16C1D0;}
	.st45{clip-path:url(#SVGID_2_);fill:#16C0D0;}
	.st46{clip-path:url(#SVGID_2_);fill:#16BFD0;}
	.st47{clip-path:url(#SVGID_2_);fill:#16BED0;}
	.st48{clip-path:url(#SVGID_2_);fill:#15BDD0;}
	.st49{clip-path:url(#SVGID_2_);fill:#15BCD0;}
	.st50{clip-path:url(#SVGID_2_);fill:#15BBD0;}
	.st51{clip-path:url(#SVGID_2_);fill:#15BAD0;}
	.st52{clip-path:url(#SVGID_2_);fill:#15B9D0;}
	.st53{clip-path:url(#SVGID_2_);fill:#15B8D0;}
	.st54{clip-path:url(#SVGID_2_);fill:#15B7D0;}
	.st55{clip-path:url(#SVGID_2_);fill:#15B6D0;}
	.st56{clip-path:url(#SVGID_2_);fill:#15B5D1;}
	.st57{clip-path:url(#SVGID_2_);fill:#15B4D1;}
	.st58{clip-path:url(#SVGID_2_);fill:#14B3D1;}
	.st59{clip-path:url(#SVGID_2_);fill:#14B2D1;}
	.st60{clip-path:url(#SVGID_2_);fill:#14B1D1;}
	.st61{clip-path:url(#SVGID_2_);fill:#14B0D1;}
	.st62{clip-path:url(#SVGID_2_);fill:#14AFD1;}
	.st63{clip-path:url(#SVGID_2_);fill:#14AED1;}
	.st64{clip-path:url(#SVGID_2_);fill:#14ADD1;}
	.st65{clip-path:url(#SVGID_2_);fill:#14ACD1;}
	.st66{clip-path:url(#SVGID_2_);fill:#14ABD1;}
	.st67{clip-path:url(#SVGID_2_);fill:#14AAD1;}
	.st68{clip-path:url(#SVGID_2_);fill:#13A9D1;}
	.st69{clip-path:url(#SVGID_2_);fill:#13A8D1;}
	.st70{clip-path:url(#SVGID_2_);fill:#13A7D1;}
	.st71{clip-path:url(#SVGID_2_);fill:#13A6D1;}
	.st72{clip-path:url(#SVGID_2_);fill:#13A5D1;}
	.st73{clip-path:url(#SVGID_2_);fill:#13A4D1;}
	.st74{fill:#F7E13E;}
	.st75{fill:#F4A640;}
</style>
<g id="Group_16111" transform="translate(0 15)">
	<g id="Ellipse_34" transform="translate(0 78.617) rotate(-74)">
		<g>
			<circle class="st0" cx="53.8" cy="47.3" r="48.7"/>
		</g>
		<g>
			<path class="st1" d="M10.4,69.4c-0.2-0.7,0.1-1.4,0.8-1.7c0.7-0.4,1.6-0.1,2,0.6C21.1,83.5,36.7,93,53.8,93
				c4.3,0,8.5-0.6,12.6-1.8c19.5-5.6,33.1-23.6,33.1-43.9c0-4.3-0.6-8.5-1.8-12.6C92.2,15.2,74.1,1.6,53.8,1.6
				c-0.8,0-1.5-0.7-1.5-1.5c0-0.8,0.7-1.5,1.5-1.5c21.6,0,40.9,14.5,46.8,35.2c1.2,4.4,1.9,8.9,1.9,13.4c0,21.6-14.5,40.9-35.2,46.8
				c-4.4,1.2-8.9,1.9-13.4,1.9c-18.3,0-34.9-10.1-43.3-26.4C10.5,69.6,10.5,69.5,10.4,69.4z"/>
		</g>
	</g>
	<g id="Group_2943" transform="translate(38.672 24.448)">
		<g id="Group_2942" transform="translate(12.869 0)">
			<g id="Path_4565">
				<g>
					<defs>
						<path id="SVGID_1_" d="M1.9-5.3h26.6c1,0,1.8,0.8,1.8,1.8c0,0,0,0,0,0v16c0,1-0.8,1.8-1.8,1.8c0,0,0,0,0,0H1.9
							c-1,0-1.8-0.8-1.8-1.8v-16C0.1-4.5,0.9-5.3,1.9-5.3C1.9-5.3,1.9-5.3,1.9-5.3z"/>
					</defs>
					<clipPath id="SVGID_2_">
						<use xlink:href="#SVGID_1_"  style="overflow:visible;"/>
					</clipPath>
					<rect x="0.1" y="-5.3" class="st2" width="30.1" height="0"/>
					<rect x="0.1" y="-5.3" class="st2" width="30.1" height="0.3"/>
					<rect x="0.1" y="-5" class="st3" width="30.1" height="0.3"/>
					<rect x="0.1" y="-4.8" class="st4" width="30.1" height="0.3"/>
					<rect x="0.1" y="-4.5" class="st5" width="30.1" height="0.3"/>
					<rect x="0.1" y="-4.2" class="st6" width="30.1" height="0.3"/>
					<rect x="0.1" y="-4" class="st7" width="30.1" height="0.3"/>
					<rect x="0.1" y="-3.7" class="st8" width="30.1" height="0.3"/>
					<rect x="0.1" y="-3.4" class="st9" width="30.1" height="0.3"/>
					<rect x="0.1" y="-3.1" class="st10" width="30.1" height="0.3"/>
					<rect x="0.1" y="-2.9" class="st11" width="30.1" height="0.3"/>
					<rect x="0.1" y="-2.6" class="st12" width="30.1" height="0.3"/>
					<rect x="0.1" y="-2.3" class="st13" width="30.1" height="0.3"/>
					<rect x="0.1" y="-2.1" class="st14" width="30.1" height="0.3"/>
					<rect x="0.1" y="-1.8" class="st15" width="30.1" height="0.3"/>
					<rect x="0.1" y="-1.5" class="st16" width="30.1" height="0.3"/>
					<rect x="0.1" y="-1.3" class="st17" width="30.1" height="0.3"/>
					<rect x="0.1" y="-1" class="st18" width="30.1" height="0.3"/>
					<rect x="0.1" y="-0.7" class="st19" width="30.1" height="0.3"/>
					<rect x="0.1" y="-0.4" class="st20" width="30.1" height="0.3"/>
					<rect x="0.1" y="-0.2" class="st21" width="30.1" height="0.3"/>
					<rect x="0.1" y="0.1" class="st22" width="30.1" height="0.3"/>
					<rect x="0.1" y="0.4" class="st23" width="30.1" height="0.3"/>
					<rect x="0.1" y="0.6" class="st24" width="30.1" height="0.3"/>
					<rect x="0.1" y="0.9" class="st25" width="30.1" height="0.3"/>
					<rect x="0.1" y="1.2" class="st26" width="30.1" height="0.3"/>
					<rect x="0.1" y="1.5" class="st27" width="30.1" height="0.3"/>
					<rect x="0.1" y="1.7" class="st28" width="30.1" height="0.3"/>
					<rect x="0.1" y="2" class="st29" width="30.1" height="0.3"/>
					<rect x="0.1" y="2.3" class="st30" width="30.1" height="0.3"/>
					<rect x="0.1" y="2.5" class="st31" width="30.1" height="0.3"/>
					<rect x="0.1" y="2.8" class="st32" width="30.1" height="0.3"/>
					<rect x="0.1" y="3.1" class="st33" width="30.1" height="0.3"/>
					<rect x="0.1" y="3.4" class="st34" width="30.1" height="0.3"/>
					<rect x="0.1" y="3.6" class="st35" width="30.1" height="0.3"/>
					<rect x="0.1" y="3.9" class="st36" width="30.1" height="0.3"/>
					<rect x="0.1" y="4.2" class="st37" width="30.1" height="0.3"/>
					<rect x="0.1" y="4.4" class="st38" width="30.1" height="0.3"/>
					<rect x="0.1" y="4.7" class="st39" width="30.1" height="0.3"/>
					<rect x="0.1" y="5" class="st40" width="30.1" height="0.3"/>
					<rect x="0.1" y="5.2" class="st41" width="30.1" height="0.3"/>
					<rect x="0.1" y="5.5" class="st42" width="30.1" height="0.3"/>
					<rect x="0.1" y="5.8" class="st43" width="30.1" height="0.3"/>
					<rect x="0.1" y="6.1" class="st44" width="30.1" height="0.3"/>
					<rect x="0.1" y="6.3" class="st45" width="30.1" height="0.3"/>
					<rect x="0.1" y="6.6" class="st46" width="30.1" height="0.3"/>
					<rect x="0.1" y="6.9" class="st47" width="30.1" height="0.3"/>
					<rect x="0.1" y="7.1" class="st48" width="30.1" height="0.3"/>
					<rect x="0.1" y="7.4" class="st49" width="30.1" height="0.3"/>
					<rect x="0.1" y="7.7" class="st50" width="30.1" height="0.3"/>
					<rect x="0.1" y="8" class="st51" width="30.1" height="0.3"/>
					<rect x="0.1" y="8.2" class="st52" width="30.1" height="0.3"/>
					<rect x="0.1" y="8.5" class="st53" width="30.1" height="0.3"/>
					<rect x="0.1" y="8.8" class="st54" width="30.1" height="0.3"/>
					<rect x="0.1" y="9" class="st55" width="30.1" height="0.3"/>
					<rect x="0.1" y="9.3" class="st56" width="30.1" height="0.3"/>
					<rect x="0.1" y="9.6" class="st57" width="30.1" height="0.3"/>
					<rect x="0.1" y="9.9" class="st58" width="30.1" height="0.3"/>
					<rect x="0.1" y="10.1" class="st59" width="30.1" height="0.3"/>
					<rect x="0.1" y="10.4" class="st60" width="30.1" height="0.3"/>
					<rect x="0.1" y="10.7" class="st61" width="30.1" height="0.3"/>
					<rect x="0.1" y="10.9" class="st62" width="30.1" height="0.3"/>
					<rect x="0.1" y="11.2" class="st63" width="30.1" height="0.3"/>
					<rect x="0.1" y="11.5" class="st64" width="30.1" height="0.3"/>
					<rect x="0.1" y="11.7" class="st65" width="30.1" height="0.3"/>
					<rect x="0.1" y="12" class="st66" width="30.1" height="0.3"/>
					<rect x="0.1" y="12.3" class="st67" width="30.1" height="0.3"/>
					<rect x="0.1" y="12.6" class="st68" width="30.1" height="0.3"/>
					<rect x="0.1" y="12.8" class="st69" width="30.1" height="0.3"/>
					<rect x="0.1" y="13.1" class="st70" width="30.1" height="0.3"/>
					<rect x="0.1" y="13.4" class="st71" width="30.1" height="0.3"/>
					<rect x="0.1" y="13.6" class="st72" width="30.1" height="0.3"/>
					<rect x="0.1" y="13.9" class="st73" width="30.1" height="0.3"/>
					<rect x="0.1" y="14.2" class="st73" width="30.1" height="0"/>
				</g>
			</g>
			<g id="Group_2941" transform="translate(3.842 4.433)">
				<g id="Line_9">
					<path class="st1" d="M19-4.3H0.1c-0.6,0-1-0.4-1-1s0.4-1,1-1H19c0.6,0,1,0.4,1,1S19.6-4.3,19-4.3z"/>
				</g>
				<g id="Line_10">
					<path class="st1" d="M11.3-0.8H0.1c-0.6,0-1-0.4-1-1s0.4-1,1-1h11.2c0.6,0,1,0.4,1,1S11.9-0.8,11.3-0.8z"/>
				</g>
				<g id="Group_2940" transform="translate(0.296 8.865)">
					<g id="Line_11">
						<path class="st74" d="M4.3-3.3H0.1c-1.1,0-2-0.9-2-2s0.9-2,2-2h4.1c1.1,0,2,0.9,2,2S5.4-3.3,4.3-3.3z"/>
					</g>
					<g id="Line_12">
						<path class="st74" d="M13.1-3.3H9c-1.1,0-2-0.9-2-2s0.9-2,2-2h4.1c1.1,0,2,0.9,2,2S14.2-3.3,13.1-3.3z"/>
					</g>
					<g id="Line_13">
						<path class="st74" d="M22-3.3h-4.1c-1.1,0-2-0.9-2-2s0.9-2,2-2H22c1.1,0,2,0.9,2,2S23.1-3.3,22-3.3z"/>
					</g>
				</g>
			</g>
		</g>
		<g id="Group_2939" transform="translate(0 15.69)">
			<g id="Path_4563">
				<path class="st74" d="M19.7,13.6V6.2c0.1-4-2.6-7.5-6.5-8.5v-0.9c0-1.1-0.8-2-1.9-2s-2,0.8-2,1.9c0,0,0,0.1,0,0.1v0.9
					c-3.9,1-6.6,4.5-6.5,8.5v7.4l-2.6,2.7v1.4h22.2v-1.3L19.7,13.6z"/>
			</g>
			<g id="Path_4564">
				<path class="st75" d="M11.2,21.6c1.4,0,2.6-1.2,2.6-2.6H8.6C8.6,20.4,9.8,21.6,11.2,21.6z"/>
			</g>
		</g>
	</g>
</g>
</svg>
