<svg xmlns="http://www.w3.org/2000/svg" width="25.619" height="29.878" viewBox="0 0 25.619 29.878">
  <g id="Group_2935" data-name="Group 2935" transform="translate(0 0.7)">
    <path id="Path_4557" data-name="Path 4557" d="M130,93.791a1.582,1.582,0,0,0-1.582,1.582v25.314A1.582,1.582,0,0,0,130,122.269h18.194a1.582,1.582,0,0,0,1.582-1.582V101.118l-7.626-7.327Z" transform="translate(-124.856 -93.791)" fill="none" stroke="#f4a640" stroke-width="1.4"/>
    <g id="Group_2933" data-name="Group 2933" transform="translate(0 10.213)">
      <path id="Path_4559" data-name="Path 4559" d="M109.414,204.381a1.826,1.826,0,0,1-1.825,1.826H94.262a1.825,1.825,0,0,1-1.825-1.826V198.8a1.825,1.825,0,0,1,1.825-1.825h13.327a1.825,1.825,0,0,1,1.825,1.825Z" transform="translate(-92.437 -196.978)" fill="#13a4d1"/>
    </g>
    <g id="Group_2934" data-name="Group 2934" transform="translate(3.325 13.099)">
      <path id="Path_4560" data-name="Path 4560" d="M127.839,226.133a1.983,1.983,0,0,1,.991.234,1.513,1.513,0,0,1,.627.666,2.274,2.274,0,0,1,.213,1.014,2.474,2.474,0,0,1-.116.782,1.7,1.7,0,0,1-.349.61,1.532,1.532,0,0,1-.572.395,2.068,2.068,0,0,1-.777.137,2.045,2.045,0,0,1-.78-.14,1.546,1.546,0,0,1-.575-.4,1.693,1.693,0,0,1-.348-.615,2.492,2.492,0,0,1-.117-.777,2.4,2.4,0,0,1,.123-.785,1.692,1.692,0,0,1,.356-.608,1.539,1.539,0,0,1,.567-.384A2.027,2.027,0,0,1,127.839,226.133Zm1.068,1.909a1.741,1.741,0,0,0-.131-.706.982.982,0,0,0-.376-.452,1.031,1.031,0,0,0-.561-.153,1.015,1.015,0,0,0-.417.085.917.917,0,0,0-.329.247,1.191,1.191,0,0,0-.218.414,1.879,1.879,0,0,0-.08.566,1.925,1.925,0,0,0,.08.572,1.183,1.183,0,0,0,.226.424.946.946,0,0,0,.334.252,1.054,1.054,0,0,0,.944-.061,1,1,0,0,0,.385-.445A1.719,1.719,0,0,0,128.908,228.042Z" transform="translate(-126.035 -226.133)" fill="#fff"/>
      <path id="Path_4561" data-name="Path 4561" d="M166.4,227.391h-.82v2.7a.5.5,0,0,1-.1.346.348.348,0,0,1-.269.113.352.352,0,0,1-.272-.114.493.493,0,0,1-.105-.344v-2.7h-.82a.414.414,0,0,1-.286-.085.288.288,0,0,1-.094-.224.284.284,0,0,1,.1-.228.424.424,0,0,1,.283-.084h2.39a.421.421,0,0,1,.29.086.289.289,0,0,1,.1.225.285.285,0,0,1-.1.224A.425.425,0,0,1,166.4,227.391Z" transform="translate(-159.909 -226.707)" fill="#fff"/>
      <path id="Path_4562" data-name="Path 4562" d="M201.444,229.039h-.688v1.051a.491.491,0,0,1-.106.342.375.375,0,0,1-.542,0,.491.491,0,0,1-.1-.338v-2.861a.468.468,0,0,1,.114-.354.519.519,0,0,1,.362-.106h.964a2.518,2.518,0,0,1,.658.066.982.982,0,0,1,.394.21.949.949,0,0,1,.252.36,1.257,1.257,0,0,1,.086.478,1.058,1.058,0,0,1-.349.86A1.589,1.589,0,0,1,201.444,229.039Zm-.183-1.7h-.506v1.134h.506a1.511,1.511,0,0,0,.444-.056.516.516,0,0,0,.272-.182.543.543,0,0,0,.094-.332.562.562,0,0,0-.144-.4A.958.958,0,0,0,201.262,227.337Z" transform="translate(-192.683 -226.71)" fill="#fff"/>
    </g>
  </g>
</svg>
