<svg xmlns="http://www.w3.org/2000/svg" width="56.373" height="57.709" viewBox="0 0 56.373 57.709">
  <g id="paper-plane" transform="matrix(0.914, 0.407, -0.407, 0.914, 15.256, -0.002)">
    <path id="Path_4566" data-name="Path 4566" d="M38.444,37.505a1.439,1.439,0,0,1-.454-.075L.953,24.772a1.407,1.407,0,0,1-.2-2.579L42.949.158a1.409,1.409,0,0,1,2.044,1.455L39.836,36.307a1.409,1.409,0,0,1-1.391,1.2ZM4.962,23.168,37.3,34.221l4.5-30.29Z" transform="translate(0 0.003)" fill="#fff"/>
    <path id="Path_4567" data-name="Path 4567" d="M1.406,43.134A1.406,1.406,0,0,1,0,41.727V29.069a1.416,1.416,0,0,1,.377-.96L26.163.448a1.408,1.408,0,0,1,2.059,1.92L2.813,29.622v7.816l4.694-6.389a1.407,1.407,0,0,1,2.267,1.667L2.541,42.562a1.415,1.415,0,0,1-1.135.572Z" transform="translate(16.409 0)" fill="#fff"/>
  </g>
</svg>
