<svg xmlns="http://www.w3.org/2000/svg" width="50" height="50" viewBox="0 0 50 50">
  <g id="Group_16077" data-name="Group 16077" transform="translate(-97 -936)">
    <circle id="Ellipse_38" data-name="Ellipse 38" cx="25" cy="25" r="25" transform="translate(97 936)" fill="#fff" opacity="0.296"/>
    <g id="Group_16075" data-name="Group 16075" transform="translate(115 951)">
      <path id="Path_2109" data-name="Path 2109" d="M618.7,291.3q0-4.794,0-9.587c0-.752.184-.937.93-.937H630.9c.685,0,.883.2.883.889q0,9.587,0,19.175c0,.688-.2.89-.884.89H619.584c-.685,0-.883-.2-.883-.889Q618.7,296.071,618.7,291.3Zm11.825,9.193V282.015h-1.369c0,.232.008.447,0,.661a1.905,1.905,0,0,1-2.007,1.944c-1.309.007-2.619.01-3.928,0a1.865,1.865,0,0,1-1.831-1.5c-.086-.363-.023-.736-.081-1.079h-1.355v18.46ZM622.571,282a5.335,5.335,0,0,0,.006.729.694.694,0,0,0,.753.665q1.914,0,3.828,0a.7.7,0,0,0,.755-.665,1.373,1.373,0,0,0-.04-.73Z" transform="translate(-618.7 -280.776)" fill="#fff" stroke="#fff" stroke-width="0.2"/>
      <path id="Path_2111" data-name="Path 2111" d="M663.536,464.863c-.623,0-1.246.006-1.869,0a.661.661,0,0,1-.735-.617c0-.357.286-.6.735-.6,1.246,0,2.492,0,3.739,0a.616.616,0,0,1,.7.584c.042.355-.272.633-.7.64C664.783,464.871,664.16,464.863,663.536,464.863Z" transform="translate(-656.982 -446.532)" fill="#fff" stroke="#fff" stroke-width="1"/>
      <path id="Path_2138" data-name="Path 2138" d="M161.55,196.119a.79.79,0,0,1-.494-.172l-1.916-1.533a.791.791,0,1,1,.989-1.234l1.364,1.092,2.947-2.947a.791.791,0,1,1,1.119,1.119l-3.449,3.449A.79.79,0,0,1,161.55,196.119Z" transform="translate(-155.384 -183.276)" fill="#fff" stroke="#fff" stroke-width="0.5"/>
    </g>
  </g>
</svg>
