<svg xmlns="http://www.w3.org/2000/svg" width="22.939" height="22.939" viewBox="0 0 22.939 22.939">
  <path id="twitter" d="M11.469,0A11.469,11.469,0,1,0,22.939,11.469,11.471,11.471,0,0,0,11.469,0Zm5.237,8.943q.008.169.008.34a7.439,7.439,0,0,1-7.49,7.49h0A7.452,7.452,0,0,1,5.188,15.59a5.354,5.354,0,0,0,.628.036A5.282,5.282,0,0,0,9.086,14.5a2.635,2.635,0,0,1-2.459-1.828,2.624,2.624,0,0,0,1.189-.045A2.633,2.633,0,0,1,5.7,10.046c0-.012,0-.023,0-.034a2.614,2.614,0,0,0,1.192.329,2.635,2.635,0,0,1-.815-3.515,7.474,7.474,0,0,0,5.426,2.751,2.634,2.634,0,0,1,4.486-2.4,5.28,5.28,0,0,0,1.672-.639,2.643,2.643,0,0,1-1.158,1.456,5.25,5.25,0,0,0,1.512-.415A5.35,5.35,0,0,1,16.706,8.943Zm0,0" fill="#fff"/>
</svg>
